PathFileType	4	(X/Y/Z)	Patient4_TMGait_0pt4_02_right_04.trc.trc
DataRate	CameraRate	NumFrames	NumMarkers	Units	OrigDataRate	OrigDataStartFrame	OrigNumFrames
72.916666666667	72.916666666667	4	33	mm	72.916666666667	18	       141
Frame#	Time	Sacral			L.Shoulder			Chest			R.Shoulder			Neck			R.ASIS			L.ASIS			R.Thigh.Superior			R.Thigh.Lateral			R.Thigh.Inferior			R.Patella			L.Thigh.Superior			L.Thigh.Lateral			L.Thigh.Inferior			L.Patella			L.Shank.Superior			L.Shank.Lateral			L.Shank.Inferior			R.Shank.Superior			R.Shank.Lateral			R.Shank.Inferior			R.Heel			R.Midfoot.Superior			R.Midfoot.Lateral			R.Toe			L.Heel			L.Midfoot.Lateral			L.Midfoot.Superior			L.Toe			L.Elbow			L.Wrist			R.Elbow			R.Wrist			
		X1	Y1	Z1	X2	Y2	Z2	X3	Y3	Z3	X4	Y4	Z4	X5	Y5	Z5	X6	Y6	Z6	X7	Y7	Z7	X8	Y8	Z8	X9	Y9	Z9	X10	Y10	Z10	X11	Y11	Z11	X12	Y12	Z12	X13	Y13	Z13	X14	Y14	Z14	X15	Y15	Z15	X16	Y16	Z16	X17	Y17	Z17	X18	Y18	Z18	X19	Y19	Z19	X20	Y20	Z20	X21	Y21	Z21	X22	Y22	Z22	X23	Y23	Z23	X24	Y24	Z24	X25	Y25	Z25	X26	Y26	Z26	X27	Y27	Z27	X28	Y28	Z28	X29	Y29	Z29	X30	Y30	Z30	X31	Y31	Z31	X32	Y32	Z32	X33	Y33	Z33	

18	4.843142857143	855.171746789033	1008.552251218624	422.101327572988	1072.971519146072	1432.540327413091	248.465366577360	1148.504789041484	1367.316773712940	424.216968730989	1041.068722409287	1445.517904886979	581.885216875704	1030.057651661113	1496.609211893978	400.542790366826	1071.831486374981	949.390395018203	565.082077369224	1084.924416335972	962.436173475313	289.017607680389	1134.917940623668	761.875415917726	545.072132015385	1079.661686317236	647.310936196798	619.378189987298	1167.274645791895	600.731772332392	542.684928806842	1195.391133463439	525.669130438691	560.011811245746	1101.650455847879	739.226730782032	323.298741461711	1000.630614991591	634.430037778553	253.676697262362	1066.079652235924	547.582369144784	322.185885746543	1055.174923490884	480.753274608047	331.649389148734	1025.583418592286	411.581009434543	322.513687021536	929.858774761374	303.202268702723	271.011864751305	968.094205397707	189.353407266076	344.549437038158	1187.316190599341	442.640328471573	573.657131929017	1147.181868890520	326.430255844447	641.142457755003	1225.548366833627	246.781787081538	591.603409697040	1151.902924046176	54.463468028697	568.579781150628	1312.077668031400	135.518728075702	604.945812207263	1238.324713418420	55.897504729852	639.474614257637	1438.409938828300	104.607214739913	625.608485028558	832.600682526538	39.336893911911	388.553766190142	904.476389852592	35.568480394271	306.261245778313	988.823860004310	95.478884547459	332.251758528351	1116.651015174361	41.670899335715	300.175347791813	1145.369066347169	1100.056342047617	110.457729310386	1381.889328446426	1011.803704250690	174.715694857911	925.883362950124	1119.309505588006	698.553647895520	967.340653356677	861.284748016381	718.385373670781	
19	4.856857142857	856.246416188106	1007.669577614895	423.919208476685	1072.921932975153	1432.213725491314	250.790887664530	1148.780625970647	1366.914059274338	426.352548216460	1041.338476152383	1444.704377156864	584.223813909613	1029.943728288484	1495.979325873147	402.888392121481	1073.117390735077	948.165050466647	566.507795365629	1085.695318700394	962.073115492900	290.398613266781	1135.888607588625	760.390689389276	546.364114477419	1079.314598464128	645.511430471709	619.955580104568	1167.132088225294	598.956226427788	543.679356767658	1194.404927681208	523.551581995742	560.608180216069	1100.849095841705	738.234820482558	324.029297183875	998.538325968349	634.309476995086	254.376491724548	1063.190218727418	546.786223064876	322.561328529718	1051.817788905736	479.999121262347	331.852541124312	1021.831630645987	411.129752337801	322.722112588935	925.317862237317	303.366506727233	271.256823670296	963.123047415838	189.149567729920	344.531831957000	1185.244370632783	439.992881500881	573.948198991885	1143.154522673372	324.388575943348	640.901290238957	1220.303262040753	243.824883294236	591.566059311994	1143.918955063891	53.298936057868	567.787848641231	1304.788951136001	131.471019315999	605.082288091778	1229.574438910246	53.795101020835	639.561448712350	1430.341476204643	98.713768366377	627.270731627086	827.100533537103	39.357044046513	388.540549403113	898.946563258391	35.562438733680	306.266532122298	983.313139371310	95.444299916327	332.213266071023	1111.102451070566	41.559861845516	300.142375451016	1146.873170917877	1099.908598470948	113.262366630857	1383.588939867400	1013.261837814221	178.764864343851	927.448919226835	1117.731175645655	700.128366389929	972.280885432327	860.135168123628	718.585881427128	
20	4.870571428571	857.530785907915	1006.579926085648	426.052584899680	1072.609166876034	1431.837554784341	253.302772110709	1148.996226955658	1366.521231984543	428.612647290751	1041.608956505028	1443.780119902067	586.792263010649	1029.698208870350	1495.261630292961	405.467914642855	1074.824309468123	946.854481133951	567.978333515005	1086.563854733004	961.657489433723	291.858070688432	1137.561737619770	758.887165356521	547.515339181259	1079.689792586858	643.661314173930	620.357341204309	1167.576013880098	597.149316087271	544.408840912730	1193.874215956492	521.041218684250	560.897555942296	1100.280143325545	737.190288428355	324.688654441998	996.606952086427	634.121387768016	255.201781660695	1060.570493114290	545.929533543719	322.980054886749	1048.792423060605	479.127404604719	332.119093009748	1018.311999131289	410.571612868770	323.028571384024	920.891270434516	303.515779026092	271.600363908536	958.208424384515	188.882563633960	344.573779809341	1183.119326580311	436.739621220239	573.912938387992	1138.289031395546	322.124469565667	640.501439682467	1213.394139107274	240.037283083556	591.209208300476	1132.789977188857	51.883831443608	567.125052841364	1294.817085582554	126.395488117831	604.811494160811	1217.855238988022	51.157519198964	639.588979673988	1419.531323413088	91.176326573228	628.302583930521	821.594503876548	39.325315138991	388.541667347737	893.413551450512	35.540427655266	306.287738615810	977.787984808617	95.405695534899	332.203199190531	1105.551363548388	41.449997339378	300.105193698780	1147.723388534088	1099.605622031850	116.143683133035	1384.556303508245	1014.035918855655	182.562505831151	929.349587216191	1115.982007746599	702.113201018947	978.117628731177	858.986919748326	719.164752421628	
21	4.884285714286	859.010672966500	1005.312943486352	428.485273731001	1072.058198409221	1431.416248167650	255.998397243808	1149.170208756486	1366.141163401538	430.996319369014	1041.903427851492	1442.755371458052	589.588934276125	1029.351593933066	1494.469673297516	408.281504589905	1076.926773700114	945.498683003827	569.492815191056	1087.538598227525	961.191264695731	293.408741283366	1139.796295502580	757.310236765641	548.559956685637	1080.617406624958	641.784818529776	620.630950886902	1168.426869644674	595.308344017089	544.888728568971	1193.623128410778	518.230348606542	560.856061580819	1099.986773660161	736.102606727824	325.300519128440	994.899213002283	633.855799272012	256.186281058287	1058.300137861648	545.010099071887	323.481248971670	1046.187860272979	478.114842916135	332.481893952126	1015.087196876639	409.890063934075	323.465649974851	916.620802618789	303.658166444113	272.070447774982	953.367881979708	188.548823824839	344.692886074728	1180.958056754573	433.054737280463	573.594756366443	1132.912196899359	319.713307596888	640.019181600159	1205.358120187806	235.686824665587	590.575136988792	1119.544001902888	50.267573629955	566.673667729900	1283.022162248697	120.748266644079	604.144961915807	1204.243167888274	48.225030940267	639.580363428556	1406.941278621745	82.761452020743	628.608145054667	816.078524215739	39.249278836099	388.558669643926	887.878972352985	35.503258506984	306.328259848482	972.254903801332	95.364836687914	332.225807263448	1100.005335676989	41.334426820741	300.061993599439	1147.903192444373	1099.136705903740	119.086951225574	1384.791213726948	1014.104952936667	186.049351893931	931.586127787091	1114.083480562294	704.493070944580	984.803341763507	857.878169534996	720.134097633861	
